<svg viewBox="-938 -479 1876 958" width="1876" height="958" style="background-color: rgb(255, 255, 255);" xmlns="http://www.w3.org/2000/svg"><path d="M-297.94062105612,80.73556074983455L-301.53613092627717,79.75825130560467M-301.53613092627717,-340.95198348473815L-301.53613092627717,79.75825130560467M-301.53613092627717,79.75825130560467L-584.9458772511529,193.20365515367305M-297.94062105612,-339.9746740405083L-297.94062105612,80.73556074983455M-297.94062105612,80.73556074983455L-581.3503673809956,194.18096459790289" style="fill:none;stroke:rgb(0,0,0);stroke-width:1;stroke-linecap:round"></path><path d="M-297.94062105612,80.73556074983452L-301.53613092627717,79.75825130560467L-301.53613092627717,-340.9519834847382z" style="fill:rgb(238,238,238); fill-opacity: 0.4"></path><path d="M-126.83477533657624,108.05866122105132L-251.4456555666761,74.18769590581786M-251.4456555666761,-276.40417760476026L-251.4456555666761,74.18769590581786M-251.4456555666761,74.18769590581786L-487.6204517056662,168.72553546201257" style="fill:none;stroke:rgb(0,0,0);stroke-width:1;stroke-linecap:round"></path><path d="M-297.94062105612,-339.9746740405084L-297.94062105612,80.73556074983452L-301.53613092627717,-340.9519834847382zM-584.9458772511529,193.20365515367303L-301.53613092627717,79.75825130560467L-297.94062105612,80.73556074983452z" style="fill:rgb(238,238,238); fill-opacity: 0.4"></path><path d="M-297.94062105612,-339.9746740405083L-301.53613092627717,-340.95198348473815M-301.53613092627717,-340.95198348473815L-584.9458772511529,-227.50657963666987M-297.94062105612,-339.9746740405083L-581.3503673809956,-226.52927019243998" style="fill:none;stroke:rgb(0,0,0);stroke-width:1;stroke-linecap:round"></path><path d="M-581.3503673809956,194.18096459790289L-297.94062105612,80.73556074983452L-297.94062105612,-339.9746740405084zM-126.83477533657624,108.05866122105131L-251.4456555666761,74.18769590581786L-251.4456555666761,-276.40417760476026z" style="fill:rgb(238,238,238); fill-opacity: 0.4"></path><path d="M-126.83477533657624,-242.5332122895268L-126.83477533657624,108.05866122105132M-126.83477533657624,108.05866122105132L-363.00957147556636,202.59650077724604M-419.66861210840585,-54.564459432521595L-423.264121978563,-55.541768876751455M-423.264121978563,-68.73647673901408L-423.264121978563,-55.541768876751455M-423.264121978563,-55.541768876751455L-432.15268350818263,-51.98378801888709M-421.46636082369037,-68.24781991807265L-421.46636082369037,-55.05311205581004M-421.46636082369037,-55.05311205581004L-430.35492235331003,-51.49513119794567M-421.46636082369037,-55.05311205581004L-356.589211509313,-42.57762552328123" style="fill:none;stroke:rgb(0,0,0);stroke-width:1;stroke-linecap:round"></path><path d="M-419.66861210840585,-54.5644594325216L-423.264121978563,-55.54176887675146L-423.264121978563,-68.73647673901408z" style="fill:rgb(153,221,255); fill-opacity: 0.4"></path><path d="M-301.53613092627717,-340.9519834847382L-301.53613092627717,79.75825130560467L-584.9458772511529,-227.50657963666987z" style="fill:rgb(238,238,238); fill-opacity: 0.4"></path><path d="M-419.66861210840585,-67.7591672947842L-419.66861210840585,-54.564459432521595M-419.66861210840585,-54.564459432521595L-428.55717363802546,-51.00647857465723" style="fill:none;stroke:rgb(0,0,0);stroke-width:1;stroke-linecap:round"></path><path d="M-432.15268350818263,-51.9837880188871L-423.264121978563,-55.54176887675146L-419.66861210840585,-54.5644594325216z" style="fill:rgb(153,221,255); fill-opacity: 0.4"></path><path d="M-419.66861210840585,-67.7591672947842L-423.264121978563,-68.73647673901408M-423.264121978563,-68.73647673901408L-432.15268350818263,-65.1784958811497" style="fill:none;stroke:rgb(0,0,0);stroke-width:1;stroke-linecap:round"></path><path d="M-419.66861210840585,-67.75916729478422L-419.66861210840585,-54.5644594325216L-423.264121978563,-68.73647673901408z" style="fill:rgb(153,221,255); fill-opacity: 0.4"></path><path d="M-421.46636082369037,-68.24781991807265L-430.35492235331003,-64.68983906020827M-421.46636082369037,-68.24781991807265L-356.589211509313,-42.57762552328123" style="fill:none;stroke:rgb(0,0,0);stroke-width:1;stroke-linecap:round"></path><path d="M-421.46636704348447,-68.24782201689914L-421.46636704348447,-55.053114154636525L-430.3549285731041,-51.49513329677216z" style="fill:rgb(255,187,187); fill-opacity: 0.4"></path><path d="M-423.264121978563,-68.73647673901408L-423.264121978563,-55.54176887675146L-432.15268350818263,-65.1784958811497z" style="fill:rgb(153,221,255); fill-opacity: 0.4"></path><path d="M-419.66861210840585,-67.7591672947842L-428.55717363802546,-64.20118643691984" style="fill:none;stroke:rgb(0,0,0);stroke-width:1;stroke-linecap:round"></path><path d="M-428.55717363802546,-51.00647857465724L-419.66861210840585,-54.5644594325216L-419.66861210840585,-67.75916729478422zM-423.264121978563,-55.54176887675146L-432.15268350818263,-51.9837880188871L-432.15268350818263,-65.1784958811497zM-428.55717363802546,-51.00647857465724L-432.15268350818263,-51.9837880188871L-419.66861210840585,-54.5644594325216zM-428.55717363802546,-64.20118643691985L-419.66861210840585,-67.75916729478422L-423.264121978563,-68.73647673901408z" style="fill:rgb(153,221,255); fill-opacity: 0.4"></path><path d="M-432.15268350818263,-65.1784958811497L-432.15268350818263,-51.98378801888709M-432.15268350818263,-51.98378801888709L-428.55717363802546,-51.00647857465723" style="fill:none;stroke:rgb(0,0,0);stroke-width:1;stroke-linecap:round"></path><path d="M-421.46636704348447,-68.24782201689914L-430.3549285731041,-51.49513329677216L-430.3549285731041,-64.68984115903476z" style="fill:rgb(255,187,187); fill-opacity: 0.4"></path><path d="M-430.35492235331003,-51.49513119794567L-430.35492235331003,-64.68983906020827M-430.35492235331003,-51.49513119794567L-356.589211509313,-42.57762552328123" style="fill:none;stroke:rgb(0,0,0);stroke-width:1;stroke-linecap:round"></path><path d="M-432.15268350818263,-65.1784958811497L-428.55717363802546,-64.20118643691985L-423.264121978563,-68.73647673901408zM-428.55717363802546,-64.20118643691985L-428.55717363802546,-51.00647857465724L-419.66861210840585,-67.75916729478422z" style="fill:rgb(153,221,255); fill-opacity: 0.4"></path><path d="M-428.55717363802546,-64.20118643691984L-428.55717363802546,-51.00647857465723" style="fill:none;stroke:rgb(0,0,0);stroke-width:1;stroke-linecap:round"></path><path d="M-432.15268350818263,-51.9837880188871L-428.55717363802546,-51.00647857465724L-428.55717363802546,-64.20118643691985zM-432.15268350818263,-65.1784958811497L-432.15268350818263,-51.9837880188871L-428.55717363802546,-64.20118643691985z" style="fill:rgb(153,221,255); fill-opacity: 0.4"></path><path d="M-581.3503673809956,194.18096459790289L-584.9458772511529,193.20365515367303L-297.94062105612,80.73556074983452z" style="fill:rgb(238,238,238); fill-opacity: 0.4"></path><path d="M-432.15268350818263,-65.1784958811497L-428.55717363802546,-64.20118643691984M-126.83477533657624,-242.5332122895268L-251.4456555666761,-276.40417760476026M-251.4456555666761,-276.40417760476026L-487.6204517056662,-181.86633804856558" style="fill:none;stroke:rgb(0,0,0);stroke-width:1;stroke-linecap:round"></path><path d="M-487.6204517056662,168.7255354620126L-251.4456555666761,74.18769590581786L-126.83477533657624,108.05866122105131z" style="fill:rgb(238,238,238); fill-opacity: 0.4"></path><path d="M-430.35492235331003,-64.68983906020827L-356.589211509313,-42.57762552328123" style="fill:none;stroke:rgb(0,0,0);stroke-width:1;stroke-linecap:round"></path><path d="M-421.46636704348447,-55.053114154636525L-421.46636704348447,-68.24782201689914L-356.58921729604157,-42.57762740333547zM-430.3549285731041,-51.49513329677216L-421.46636704348447,-55.053114154636525L-356.58921729604157,-42.57762740333547zM-421.46636704348447,-68.24782201689914L-430.3549285731041,-64.68984115903476L-356.58921729604157,-42.57762740333547zM-430.3549285731041,-64.68984115903476L-430.3549285731041,-51.49513329677216L-356.58921729604157,-42.57762740333547z" style="fill:rgb(255,187,187); fill-opacity: 0.4"></path><path d="M-126.83477533657624,-242.53321228952683L-126.83477533657624,108.05866122105131L-251.4456555666761,-276.40417760476026zM-581.3503673809956,-226.52927019243998L-297.94062105612,-339.9746740405084L-301.53613092627717,-340.9519834847382zM-301.53613092627717,79.75825130560467L-584.9458772511529,193.20365515367303L-584.9458772511529,-227.50657963666987zM-251.4456555666761,-276.40417760476026L-251.4456555666761,74.18769590581786L-487.6204517056662,-181.86633804856555z" style="fill:rgb(238,238,238); fill-opacity: 0.4"></path><path d="M70.99098231254956,142.64459511737778L-78.54206299094494,101.99943972160938M-78.54206299094491,-178.47403895332673L-78.54206299094494,101.99943972160938M-78.54206299094494,101.99943972160938L-267.48188633926844,177.6297059375172M-126.83477533657624,-242.5332122895268L-363.00957147556636,-147.99537273333212" style="fill:none;stroke:rgb(0,0,0);stroke-width:1;stroke-linecap:round"></path><path d="M-581.3503673809956,-226.52927019243998L-581.3503673809956,194.18096459790289L-297.94062105612,-339.9746740405084zM-251.4456555666761,74.18769590581786L-487.6204517056662,168.7255354620126L-487.6204517056662,-181.86633804856555zM-363.00957147556636,202.596500777246L-126.83477533657624,108.05866122105131L-126.83477533657624,-242.53321228952683z" style="fill:rgb(238,238,238); fill-opacity: 0.4"></path><path d="M-584.9458772511529,-227.50657963666987L-584.9458772511529,193.20365515367305M-584.9458772511529,193.20365515367305L-581.3503673809956,194.18096459790289M-581.3503673809956,-226.52927019243998L-581.3503673809956,194.18096459790289" style="fill:none;stroke:rgb(0,0,0);stroke-width:1;stroke-linecap:round"></path><path d="M-363.00957147556636,202.596500777246L-487.6204517056662,168.7255354620126L-126.83477533657624,108.05866122105131zM70.99098231254956,142.64459511737778L-78.54206299094494,101.99943972160938L-78.54206299094491,-178.47403895332673zM-584.9458772511529,-227.50657963666987L-581.3503673809956,-226.52927019243998L-301.53613092627717,-340.9519834847382z" style="fill:rgb(238,238,238); fill-opacity: 0.4"></path><path d="M-487.6204517056662,-181.86633804856558L-487.6204517056662,168.72553546201257M-487.6204517056662,168.72553546201257L-363.00957147556636,202.59650077724604" style="fill:none;stroke:rgb(0,0,0);stroke-width:1;stroke-linecap:round"></path><path d="M-363.00957147556636,-147.99537273333212L-126.83477533657624,-242.53321228952683L-251.4456555666761,-276.40417760476026zM-584.9458772511529,193.20365515367303L-581.3503673809956,194.18096459790289L-581.3503673809956,-226.52927019243998z" style="fill:rgb(238,238,238); fill-opacity: 0.4"></path><path d="M70.99098231254958,-137.82888355755833L-78.54206299094491,-178.47403895332673M-78.54206299094491,-178.47403895332673L-267.48188633926844,-102.84377273741892" style="fill:none;stroke:rgb(0,0,0);stroke-width:1;stroke-linecap:round"></path><path d="M-267.48188633926844,177.6297059375172L-78.54206299094494,101.99943972160938L70.99098231254956,142.64459511737778z" style="fill:rgb(238,238,238); fill-opacity: 0.4"></path><path d="M-305.04822378383403,-107.27168149787721L-429.6591040139339,-141.14264681311067M-429.6591040139339,-154.3373546753733L-429.6591040139339,-141.14264681311067M-429.6591040139339,-141.14264681311067L-438.54766554355353,-137.5846659552463M70.99098231254958,-137.82888355755833L70.99098231254956,142.64459511737778M70.99098231254956,142.64459511737778L-117.948841035774,218.2748613332856M-305.04822378383403,-120.46638936013983L-429.6591040139339,-154.3373546753733M-429.6591040139339,-154.3373546753733L-438.54766554355353,-150.7793738175089" style="fill:none;stroke:rgb(0,0,0);stroke-width:1;stroke-linecap:round"></path><path d="M-429.6591040139339,-154.33735467537326L-429.6591040139339,-141.14264681311067L-438.54766554355353,-150.77937381750888zM-429.6591040139339,-141.14264681311067L-438.54766554355353,-137.5846659552463L-438.54766554355353,-150.77937381750888z" style="fill:rgb(153,221,255); fill-opacity: 0.4"></path><path d="M-438.54766554355353,-150.7793738175089L-438.54766554355353,-137.5846659552463M-438.54766554355353,-137.5846659552463L-313.93678531345364,-103.71370064001283M-438.54766554355353,-150.7793738175089L-313.93678531345364,-116.90840850227545" style="fill:none;stroke:rgb(0,0,0);stroke-width:1;stroke-linecap:round"></path><path d="M-584.9458772511529,-227.50657963666987L-584.9458772511529,193.20365515367303L-581.3503673809956,-226.52927019243998zM-78.54206299094491,-178.47403895332673L-78.54206299094494,101.99943972160938L-267.48188633926844,-102.84377273741892zM70.99098231254956,-137.82888355755833L70.99098231254956,142.64459511737778L-78.54206299094491,-178.47403895332673zM-487.6204517056662,-181.86633804856555L-363.00957147556636,-147.99537273333212L-251.4456555666761,-276.40417760476026z" style="fill:rgb(238,238,238); fill-opacity: 0.4"></path><path d="M-305.04822378383403,-107.27168149787721L-429.6591040139339,-141.14264681311067L-429.6591040139339,-154.33735467537326zM-438.54766554355353,-137.5846659552463L-429.6591040139339,-141.14264681311067L-305.04822378383403,-107.27168149787721z" style="fill:rgb(153,221,255); fill-opacity: 0.4"></path><path d="M-52.47620474111516,169.31391130764516L-202.00925004460964,128.66875591187673M-202.00925004460964,115.47404804961413L-202.00925004460964,128.66875591187673M-202.00925004460964,128.66875591187673L-210.8978115742293,132.2267367697411M-52.47620474111516,156.11920344538254L-202.00925004460964,115.47404804961413M-202.00925004460964,115.47404804961413L-210.8978115742293,119.03202890747848" style="fill:none;stroke:rgb(0,0,0);stroke-width:1;stroke-linecap:round"></path><path d="M-438.54766554355353,-150.77937381750888L-313.93678531345364,-116.90840850227542L-429.6591040139339,-154.33735467537326zM-202.00925004460964,115.47404804961411L-202.00925004460964,128.6687559118767L-210.8978115742293,119.03202890747845zM-438.54766554355353,-150.77937381750888L-438.54766554355353,-137.5846659552463L-313.93678531345364,-116.90840850227542zM-202.00925004460964,128.6687559118767L-210.8978115742293,132.22673676974108L-210.8978115742293,119.03202890747845z" style="fill:rgb(153,221,255); fill-opacity: 0.4"></path><path d="M-210.8978115742293,119.03202890747848L-210.8978115742293,132.2267367697411M-210.8978115742293,132.2267367697411L-61.3647662707348,172.87189216550954M-210.8978115742293,119.03202890747848L-61.3647662707348,159.67718430324692" style="fill:none;stroke:rgb(0,0,0);stroke-width:1;stroke-linecap:round"></path><path d="M-363.00957147556636,-147.99537273333212L-363.00957147556636,202.596500777246L-126.83477533657624,-242.53321228952683z" style="fill:rgb(238,238,238); fill-opacity: 0.4"></path><path d="M-363.00957147556636,-147.99537273333212L-363.00957147556636,202.59650077724604" style="fill:none;stroke:rgb(0,0,0);stroke-width:1;stroke-linecap:round"></path><path d="M-78.54206299094494,101.99943972160938L-267.48188633926844,177.6297059375172L-267.48188633926844,-102.84377273741892z" style="fill:rgb(238,238,238); fill-opacity: 0.4"></path><path d="M-305.04822378383403,-120.4663893601398L-305.04822378383403,-107.27168149787721L-429.6591040139339,-154.33735467537326z" style="fill:rgb(153,221,255); fill-opacity: 0.4"></path><path d="M-584.9458772511529,-227.50657963666987L-581.3503673809956,-226.52927019243998" style="fill:none;stroke:rgb(0,0,0);stroke-width:1;stroke-linecap:round"></path><path d="M-313.93678531345364,-103.71370064001283L-438.54766554355353,-137.5846659552463L-305.04822378383403,-107.27168149787721z" style="fill:rgb(153,221,255); fill-opacity: 0.4"></path><path d="M-487.6204517056662,168.7255354620126L-363.00957147556636,202.596500777246L-363.00957147556636,-147.99537273333212z" style="fill:rgb(238,238,238); fill-opacity: 0.4"></path><path d="M-313.93678531345364,-116.90840850227542L-305.04822378383403,-120.4663893601398L-429.6591040139339,-154.33735467537326zM-438.54766554355353,-137.5846659552463L-313.93678531345364,-103.71370064001283L-313.93678531345364,-116.90840850227542zM-52.47620474111516,169.31391130764513L-202.00925004460964,128.6687559118767L-202.00925004460964,115.47404804961411zM-210.8978115742293,132.22673676974108L-202.00925004460964,128.6687559118767L-52.47620474111516,169.31391130764513z" style="fill:rgb(153,221,255); fill-opacity: 0.4"></path><path d="M-487.6204517056662,-181.86633804856555L-487.6204517056662,168.7255354620126L-363.00957147556636,-147.99537273333212z" style="fill:rgb(238,238,238); fill-opacity: 0.4"></path><path d="M-210.8978115742293,119.03202890747845L-61.3647662707348,159.67718430324686L-202.00925004460964,115.47404804961411z" style="fill:rgb(153,221,255); fill-opacity: 0.4"></path><path d="M-487.6204517056662,-181.86633804856558L-363.00957147556636,-147.99537273333212" style="fill:none;stroke:rgb(0,0,0);stroke-width:1;stroke-linecap:round"></path><path d="M-210.8978115742293,119.03202890747845L-210.8978115742293,132.22673676974108L-61.3647662707348,159.67718430324686z" style="fill:rgb(153,221,255); fill-opacity: 0.4"></path><path d="M-305.04822521203715,-120.46638675141149L-305.04822521203715,-107.27167888914887M-305.04822521203715,-107.27167888914887L-313.93678674165676,-103.7136980312845M-305.04822521203715,-107.27167888914887L-224.66824245038077,-74.11951964153056M-305.04822378383403,-120.46638936013983L-305.04822378383403,-107.27168149787721M-305.04822378383403,-107.27168149787721L-313.93678531345364,-103.71370064001283M293.73893341370547,184.0047359895315L119.28370932103469,136.58538678508847M119.28370932103469,-73.76973061008297L119.28370932103469,136.58538678508847M119.28370932103469,136.58538678508847L-22.42116384140319,193.30808870912264M-305.04822521203715,-120.46638675141149L-313.93678674165676,-116.90840589354711M-305.04822521203715,-120.46638675141149L-224.66824245038077,-74.11951964153056M-305.04822378383403,-120.46638936013983L-313.93678531345364,-116.90840850227545" style="fill:none;stroke:rgb(0,0,0);stroke-width:1;stroke-linecap:round"></path><path d="M-305.04822566951185,-120.46638987269316L-305.04822566951185,-107.27168201043057L-313.93678719913146,-103.71370115256619z" style="fill:rgb(255,187,187); fill-opacity: 0.4"></path><path d="M-313.93678531345364,-103.71370064001283L-305.04822378383403,-107.27168149787721L-305.04822378383403,-120.4663893601398z" style="fill:rgb(153,221,255); fill-opacity: 0.4"></path><path d="M70.99098231254958,-137.82888355755833L-117.94884103577397,-62.19861734165052M-267.48188633926844,-102.84377273741892L-267.48188633926844,177.6297059375172M-267.48188633926844,177.6297059375172L-117.948841035774,218.2748613332856" style="fill:none;stroke:rgb(0,0,0);stroke-width:1;stroke-linecap:round"></path><path d="M-305.04822566951185,-120.46638987269316L-313.93678719913146,-103.71370115256619L-313.93678719913146,-116.9084090148288z" style="fill:rgb(255,187,187); fill-opacity: 0.4"></path><path d="M-313.93678531345364,-116.90840850227542L-313.93678531345364,-103.71370064001283L-305.04822378383403,-120.4663893601398z" style="fill:rgb(153,221,255); fill-opacity: 0.4"></path><path d="M-313.93678674165676,-103.7136980312845L-313.93678674165676,-116.90840589354711M-313.93678674165676,-103.7136980312845L-224.66824245038077,-74.11951964153056M-313.93678531345364,-116.90840850227545L-313.93678531345364,-103.71370064001283" style="fill:none;stroke:rgb(0,0,0);stroke-width:1;stroke-linecap:round"></path><path d="M-117.948841035774,218.2748613332856L70.99098231254956,142.64459511737778L70.99098231254956,-137.82888355755833zM-117.948841035774,218.2748613332856L-267.48188633926844,177.6297059375172L70.99098231254956,142.64459511737778z" style="fill:rgb(238,238,238); fill-opacity: 0.4"></path><path d="M-313.93678674165676,-116.90840589354711L-224.66824245038077,-74.11951964153056" style="fill:none;stroke:rgb(0,0,0);stroke-width:1;stroke-linecap:round"></path><path d="M-305.04822566951185,-107.27168201043057L-305.04822566951185,-120.46638987269316L-224.66824280266405,-74.11951877924533zM-313.93678719913146,-103.71370115256619L-305.04822566951185,-107.27168201043057L-224.66824280266405,-74.11951877924533zM-305.04822566951185,-120.46638987269316L-313.93678719913146,-116.9084090148288L-224.66824280266405,-74.11951877924533z" style="fill:rgb(255,187,187); fill-opacity: 0.4"></path><path d="M-52.47620474111516,156.1192034453825L-52.47620474111516,169.31391130764513L-202.00925004460964,115.47404804961411z" style="fill:rgb(153,221,255); fill-opacity: 0.4"></path><path d="M-313.93678719913146,-116.9084090148288L-313.93678719913146,-103.71370115256619L-224.66824280266405,-74.11951877924533z" style="fill:rgb(255,187,187); fill-opacity: 0.4"></path><path d="M-61.3647662707348,172.8718921655095L-210.8978115742293,132.22673676974108L-52.47620474111516,169.31391130764513zM-61.3647662707348,159.67718430324686L-52.47620474111516,156.1192034453825L-202.00925004460964,115.47404804961411zM-210.8978115742293,132.22673676974108L-61.3647662707348,172.8718921655095L-61.3647662707348,159.67718430324686z" style="fill:rgb(153,221,255); fill-opacity: 0.4"></path><path d="M-117.948841035774,-62.19861734165052L70.99098231254956,-137.82888355755833L-78.54206299094491,-178.47403895332673z" style="fill:rgb(238,238,238); fill-opacity: 0.4"></path><path d="M-52.47620474111516,156.11920344538254L-52.47620474111516,169.31391130764516M-52.47620474111516,169.31391130764516L-61.3647662707348,172.87189216550954M-52.47619686158134,156.11920537291502L-52.47619686158134,169.31391323517764M-52.47619686158134,169.31391323517764L-61.36475839120098,172.87189409304202M-52.47619686158134,169.31391323517764L23.350095582278122,152.97359067623438M-52.47620474111516,156.11920344538254L-61.3647662707348,159.67718430324692M-52.47619686158134,156.11920537291502L-61.36475839120098,159.6771862307794M-52.47619686158134,156.11920537291502L23.350095582278122,152.97359067623438" style="fill:none;stroke:rgb(0,0,0);stroke-width:1;stroke-linecap:round"></path><path d="M-61.3647662707348,172.8718921655095L-52.47620474111516,169.31391130764513L-52.47620474111516,156.1192034453825z" style="fill:rgb(153,221,255); fill-opacity: 0.4"></path><path d="M-52.47620151761583,156.11920432157433L-52.47620151761583,169.31391218383692L-61.3647630472355,172.8718930417013z" style="fill:rgb(255,187,187); fill-opacity: 0.4"></path><path d="M-61.3647662707348,159.67718430324686L-61.3647662707348,172.8718921655095L-52.47620474111516,156.1192034453825z" style="fill:rgb(153,221,255); fill-opacity: 0.4"></path><path d="M-52.47620151761583,156.11920432157433L-61.3647630472355,172.8718930417013L-61.3647630472355,159.67718517943868z" style="fill:rgb(255,187,187); fill-opacity: 0.4"></path><path d="M-61.3647662707348,159.67718430324692L-61.3647662707348,172.87189216550954M-61.36475839120098,172.87189409304202L-61.36475839120098,159.6771862307794M-61.36475839120098,172.87189409304202L23.350095582278122,152.97359067623438M-61.36475839120098,159.6771862307794L23.350095582278122,152.97359067623438" style="fill:none;stroke:rgb(0,0,0);stroke-width:1;stroke-linecap:round"></path><path d="M-267.48188633926844,-102.84377273741892L-117.948841035774,-62.19861734165052L-78.54206299094491,-178.47403895332673zM293.73893341370547,184.00473598953147L119.28370932103472,136.58538678508845L119.28370932103472,-73.76973061008297z" style="fill:rgb(238,238,238); fill-opacity: 0.4"></path><path d="M293.73893341370547,-26.35038140563995L119.28370932103469,-73.76973061008297M119.28370932103469,-73.76973061008297L-22.42116384140319,-17.047028686048805" style="fill:none;stroke:rgb(0,0,0);stroke-width:1;stroke-linecap:round"></path><path d="M-52.47620151761583,169.31391218383692L-52.47620151761583,156.11920432157433L23.350104156795595,152.97359783683942zM-61.3647630472355,172.8718930417013L-52.47620151761583,169.31391218383692L23.350104156795595,152.97359783683942zM-52.47620151761583,156.11920432157433L-61.3647630472355,159.67718517943868L23.350104156795595,152.97359783683942zM-61.3647630472355,159.67718517943868L-61.3647630472355,172.8718930417013L23.350104156795595,152.97359783683942z" style="fill:rgb(255,187,187); fill-opacity: 0.4"></path><path d="M-22.42116384140319,193.30808870912264L119.28370932103472,136.58538678508845L293.73893341370547,184.00473598953147z" style="fill:rgb(238,238,238); fill-opacity: 0.4"></path><path d="M-267.48188633926844,-102.84377273741892L-117.94884103577397,-62.19861734165052" style="fill:none;stroke:rgb(0,0,0);stroke-width:1;stroke-linecap:round"></path><path d="M119.28370932103472,-73.76973061008297L119.28370932103472,136.58538678508845L-22.42116384140319,-17.04702868604881zM-267.48188633926844,-102.84377273741892L-267.48188633926844,177.6297059375172L-117.948841035774,-62.19861734165052zM-117.948841035774,-62.19861734165052L-117.948841035774,218.2748613332856L70.99098231254956,-137.82888355755833zM-267.48188633926844,177.6297059375172L-117.948841035774,218.2748613332856L-117.948841035774,-62.19861734165052z" style="fill:rgb(238,238,238); fill-opacity: 0.4"></path><path d="M-117.94884103577397,-62.19861734165052L-117.948841035774,218.2748613332856" style="fill:none;stroke:rgb(0,0,0);stroke-width:1;stroke-linecap:round"></path><path d="M119.28370932103472,136.58538678508845L-22.42116384140319,193.30808870912264L-22.42116384140319,-17.04702868604881z" style="fill:rgb(238,238,238); fill-opacity: 0.4"></path><path d="M293.73893341370547,-26.35038140563995L293.73893341370547,184.0047359895315M293.73893341370547,184.0047359895315L152.03406025126762,240.72743791356564" style="fill:none;stroke:rgb(0,0,0);stroke-width:1;stroke-linecap:round"></path><path d="M293.73893341370547,-26.350381405639958L293.73893341370547,184.00473598953147L119.28370932103472,-73.76973061008297z" style="fill:rgb(238,238,238); fill-opacity: 0.4"></path><path d="M-22.42116384140319,-17.047028686048805L-22.42116384140319,193.30808870912264M-22.42116384140319,193.30808870912264L152.03406025126762,240.72743791356564" style="fill:none;stroke:rgb(0,0,0);stroke-width:1;stroke-linecap:round"></path><path d="M152.0340602512676,240.72743791356564L-22.42116384140319,193.30808870912264L293.73893341370547,184.00473598953147z" style="fill:rgb(238,238,238); fill-opacity: 0.4"></path><path d="M293.73893341370547,-26.35038140563995L152.03406025126762,30.372320518394226" style="fill:none;stroke:rgb(0,0,0);stroke-width:1;stroke-linecap:round"></path><path d="M152.0340602512676,240.72743791356564L293.73893341370547,184.00473598953147L293.73893341370547,-26.350381405639958zM152.0340602512676,30.37232051839422L293.73893341370547,-26.350381405639958L119.28370932103472,-73.76973061008297zM-22.42116384140319,-17.04702868604881L152.0340602512676,30.37232051839422L119.28370932103472,-73.76973061008297z" style="fill:rgb(238,238,238); fill-opacity: 0.4"></path><path d="M404.3956776070071,348.7775643160405L347.07467599294876,333.19692116578665M347.0746759929488,-83.05440864424648L347.07467599294876,333.19692116578665M347.07467599294876,333.19692116578665L299.8397201558679,352.1044877197636M-22.42116384140319,-17.047028686048805L152.03406025126762,30.372320518394226" style="fill:none;stroke:rgb(0,0,0);stroke-width:1;stroke-linecap:round"></path><path d="M-22.42116384140319,-17.04702868604881L-22.42116384140319,193.30808870912264L152.0340602512676,30.37232051839422zM299.83972015586784,352.10448771976354L347.07467599294876,333.1969211657866L404.3956776070071,348.7775643160405z" style="fill:rgb(238,238,238); fill-opacity: 0.4"></path><path d="M404.39567760700714,-67.47376549399262L404.3956776070071,348.7775643160405M404.3956776070071,348.7775643160405L357.1607217699262,367.6851308700175" style="fill:none;stroke:rgb(0,0,0);stroke-width:1;stroke-linecap:round"></path><path d="M-22.42116384140319,193.30808870912264L152.0340602512676,240.72743791356564L152.0340602512676,30.37232051839422z" style="fill:rgb(238,238,238); fill-opacity: 0.4"></path><path d="M255.14250976294045,115.95615988578903L295.8916216247215,127.03233358706076M299.83972015586795,-64.14684209026954L299.8397201558679,352.1044877197636M299.8397201558679,352.1044877197636L357.1607217699262,367.6851308700175" style="fill:none;stroke:rgb(0,0,0);stroke-width:1;stroke-linecap:round"></path><path d="M152.0340602512676,30.37232051839422L152.0340602512676,240.72743791356564L293.73893341370547,-26.350381405639958zM404.3956776070071,348.7775643160405L347.07467599294876,333.1969211657866L347.07467599294876,-83.05440864424651zM357.16072176992617,367.6851308700175L299.83972015586784,352.10448771976354L404.3956776070071,348.7775643160405z" style="fill:rgb(238,238,238); fill-opacity: 0.4"></path><path d="M152.03406025126762,30.372320518394226L152.03406025126762,240.72743791356564" style="fill:none;stroke:rgb(0,0,0);stroke-width:1;stroke-linecap:round"></path><path d="M347.07467599294876,333.1969211657866L299.83972015586784,352.10448771976354L299.83972015586784,-64.14684209026957z" style="fill:rgb(238,238,238); fill-opacity: 0.4"></path><path d="M288.84701781301567,133.25002528511035L295.89162162472155,138.0279234722796L319.8616874257692,133.54772988192647zM300.2454260475467,116.3939405442902L291.5378172018964,119.87948828869783L319.8616874257692,133.54772988192647zM291.5378172018964,119.87948828869783L288.84701781301567,133.25002528511035L319.8616874257692,133.54772988192647z" style="fill:rgb(0,0,0)"></path><path d="M357.1607217699263,-48.56619894001568L357.1607217699262,367.6851308700175" style="fill:none;stroke:rgb(0,0,0);stroke-width:1;stroke-linecap:round"></path><path d="M357.16072176992617,367.6851308700175L404.3956776070071,348.7775643160405L404.3956776070071,-67.47376549399262zM347.07467599294876,-83.05440864424651L347.07467599294876,333.1969211657866L299.83972015586784,-64.14684209026957zM404.3956776070071,-67.47376549399262L404.3956776070071,348.7775643160405L347.07467599294876,-83.05440864424651z" style="fill:rgb(238,238,238); fill-opacity: 0.4"></path><path d="M533.6268781811725,297.7237262446905L476.3058765671142,282.14308309443663M476.3058765671142,38.25309434321448L476.3058765671142,282.14308309443663M476.3058765671142,282.14308309443663L429.0709207300333,301.0506496484136" style="fill:none;stroke:rgb(0,0,0);stroke-width:1;stroke-linecap:round"></path><path d="M299.83972015586784,352.10448771976354L357.16072176992617,367.6851308700175L357.16072176992617,-48.56619894001569z" style="fill:rgb(238,238,238); fill-opacity: 0.4"></path><path d="M404.39567760700714,-67.47376549399262L347.0746759929488,-83.05440864424648M347.0746759929488,-83.05440864424648L299.83972015586795,-64.14684209026954M384.3737103371059,151.0829923438445L425.12282219888687,162.1591660451162" style="fill:none;stroke:rgb(0,0,0);stroke-width:1;stroke-linecap:round"></path><path d="M429.07092073003327,301.0506496484136L476.3058765671142,282.14308309443663L533.6268781811725,297.7237262446905zM299.83972015586784,-64.14684209026957L299.83972015586784,352.10448771976354L357.16072176992617,-48.56619894001569zM533.6268781811725,297.7237262446905L476.3058765671142,282.14308309443663L476.3058765671142,38.25309434321447z" style="fill:rgb(238,238,238); fill-opacity: 0.4"></path><path d="M533.6268781811725,53.83373749346834L533.6268781811725,297.7237262446905M533.6268781811725,297.7237262446905L486.39192234409165,316.6312927986674" style="fill:none;stroke:rgb(0,0,0);stroke-width:1;stroke-linecap:round"></path><path d="M357.16072176992617,-48.56619894001569L357.16072176992617,367.6851308700175L404.3956776070071,-67.47376549399262z" style="fill:rgb(238,238,238); fill-opacity: 0.4"></path><path d="M429.0709207300333,57.16066089719142L429.0709207300333,301.0506496484136M429.0709207300333,301.0506496484136L486.39192234409165,316.6312927986674" style="fill:none;stroke:rgb(0,0,0);stroke-width:1;stroke-linecap:round"></path><path d="M418.07821838718104,168.3768577431658L425.1228221988869,173.15475593033509L449.0928879999346,168.67456233998192zM429.4766266217121,151.52077300234563L420.7690177760618,155.00632074675326L449.0928879999346,168.67456233998192z" style="fill:rgb(0,0,0)"></path><path d="M404.39567760700714,-67.47376549399262L357.1607217699263,-48.56619894001568" style="fill:none;stroke:rgb(0,0,0);stroke-width:1;stroke-linecap:round"></path><path d="M420.7690177760618,155.00632074675326L418.07821838718104,168.3768577431658L449.0928879999346,168.67456233998192z" style="fill:rgb(0,0,0)"></path><path d="M357.16072176992617,-48.56619894001569L404.3956776070071,-67.47376549399262L347.07467599294876,-83.05440864424651zM476.3058765671142,282.14308309443663L429.07092073003327,301.0506496484136L429.07092073003327,57.16066089719141zM299.83972015586784,-64.14684209026957L357.16072176992617,-48.56619894001569L347.07467599294876,-83.05440864424651zM486.39192234409154,316.6312927986674L429.07092073003327,301.0506496484136L533.6268781811725,297.7237262446905z" style="fill:rgb(238,238,238); fill-opacity: 0.4"></path><path d="M299.83972015586795,-64.14684209026954L357.1607217699263,-48.56619894001568" style="fill:none;stroke:rgb(0,0,0);stroke-width:1;stroke-linecap:round"></path><path d="M476.3058765671142,38.25309434321447L476.3058765671142,282.14308309443663L429.07092073003327,57.16066089719141z" style="fill:rgb(238,238,238); fill-opacity: 0.4"></path><path d="M533.6268781811725,53.83373749346834L476.3058765671142,38.25309434321448M476.3058765671142,38.25309434321448L429.0709207300333,57.16066089719142" style="fill:none;stroke:rgb(0,0,0);stroke-width:1;stroke-linecap:round"></path><path d="M533.6268781811725,53.833737493468334L533.6268781811725,297.7237262446905L476.3058765671142,38.25309434321447zM486.39192234409154,316.6312927986674L533.6268781811725,297.7237262446905L533.6268781811725,53.833737493468334z" style="fill:rgb(238,238,238); fill-opacity: 0.4"></path><path d="M486.39192234409165,72.74130404744528L486.39192234409165,316.6312927986674" style="fill:none;stroke:rgb(0,0,0);stroke-width:1;stroke-linecap:round"></path><path d="M429.07092073003327,301.0506496484136L486.39192234409154,316.6312927986674L486.39192234409154,72.74130404744528z" style="fill:rgb(238,238,238); fill-opacity: 0.4"></path><path d="M513.6049109112712,186.20982480189997L554.3540227730523,197.28599850317167" style="fill:none;stroke:rgb(0,0,0);stroke-width:1;stroke-linecap:round"></path><path d="M429.07092073003327,57.16066089719141L429.07092073003327,301.0506496484136L486.39192234409154,72.74130404744528z" style="fill:rgb(238,238,238); fill-opacity: 0.4"></path><path d="M533.6268781811725,53.83373749346834L486.39192234409165,72.74130404744528" style="fill:none;stroke:rgb(0,0,0);stroke-width:1;stroke-linecap:round"></path><path d="M486.39192234409154,72.74130404744528L533.6268781811725,53.833737493468334L476.3058765671142,38.25309434321447zM429.07092073003327,57.16066089719141L486.39192234409154,72.74130404744528L476.3058765671142,38.25309434321447zM486.39192234409154,72.74130404744528L486.39192234409154,316.6312927986674L533.6268781811725,53.833737493468334z" style="fill:rgb(238,238,238); fill-opacity: 0.4"></path><path d="M429.0709207300333,57.16066089719142L486.39192234409165,72.74130404744528M662.8580787553378,213.10468230417865L605.5370771412796,197.52403915392478M605.5370771412796,193.12580319983724L605.5370771412796,197.52403915392478M605.5370771412796,197.52403915392478L558.3021213041987,216.43160570790172M662.8580787553378,208.70644635009108L605.5370771412796,193.12580319983724M605.5370771412796,193.12580319983724L558.3021213041987,212.03336975381416" style="fill:none;stroke:rgb(0,0,0);stroke-width:1;stroke-linecap:round"></path><path d="M547.3094189613464,203.50369020122127L554.3540227730523,208.28158838839056L578.3240885741,203.8013947980374zM558.7078271958775,186.6476054604011L550.0002183502272,190.13315320480874L578.3240885741,203.8013947980374z" style="fill:rgb(0,0,0)"></path><path d="M662.8580787553378,213.10468230417865L605.5370771412796,197.52403915392478L605.5370771412796,193.12580319983724z" style="fill:rgb(238,238,238); fill-opacity: 0.4"></path><path d="M550.0002183502272,190.13315320480874L547.3094189613464,203.50369020122127L578.3240885741,203.8013947980374z" style="fill:rgb(0,0,0)"></path><path d="M605.5370771412796,193.12580319983724L605.5370771412796,197.52403915392478L558.3021213041986,212.03336975381416zM662.8580787553378,208.70644635009108L662.8580787553378,213.10468230417865L605.5370771412796,193.12580319983724zM558.3021213041986,216.43160570790172L605.5370771412796,197.52403915392478L662.8580787553378,213.10468230417865zM605.5370771412796,197.52403915392478L558.3021213041986,216.43160570790172L558.3021213041986,212.03336975381416z" style="fill:rgb(238,238,238); fill-opacity: 0.4"></path><path d="M662.8580787553378,208.70644635009108L662.8580787553378,213.10468230417865M662.8580787553378,213.10468230417865L615.6231229182571,232.01224885815557M662.8580787553378,208.70644635009108L615.6231229182571,227.61401290406803" style="fill:none;stroke:rgb(0,0,0);stroke-width:1;stroke-linecap:round"></path><path d="M615.623122918257,227.61401290406806L662.8580787553378,208.70644635009108L605.5370771412796,193.12580319983724zM558.3021213041986,212.03336975381416L615.623122918257,227.61401290406806L605.5370771412796,193.12580319983724z" style="fill:rgb(238,238,238); fill-opacity: 0.4"></path><path d="M558.3021213041987,212.03336975381416L558.3021213041987,216.43160570790172M558.3021213041987,216.43160570790172L615.6231229182571,232.01224885815557M558.3021213041987,212.03336975381416L615.6231229182571,227.61401290406803" style="fill:none;stroke:rgb(0,0,0);stroke-width:1;stroke-linecap:round"></path><path d="M615.623122918257,232.0122488581556L662.8580787553378,213.10468230417865L662.8580787553378,208.70644635009108zM615.623122918257,232.0122488581556L558.3021213041986,216.43160570790172L662.8580787553378,213.10468230417865zM558.3021213041986,212.03336975381416L558.3021213041986,216.43160570790172L615.623122918257,227.61401290406806zM615.623122918257,227.61401290406806L615.623122918257,232.0122488581556L662.8580787553378,208.70644635009108zM558.3021213041986,216.43160570790172L615.623122918257,232.0122488581556L615.623122918257,227.61401290406806z" style="fill:rgb(238,238,238); fill-opacity: 0.4"></path><path d="M615.6231229182571,227.61401290406803L615.6231229182571,232.01224885815557" style="fill:none;stroke:rgb(0,0,0);stroke-width:1;stroke-linecap:round"></path></svg>